<svg id="Layer_1" data-name="Layer 1" xmlns="http://www.w3.org/2000/svg" viewBox="0 0 220 24.04"><defs><style>.cls-1{fill:#111;}.cls-2{fill:#b05da4;}</style></defs><title>Thompson-and-co-logo</title><path class="cls-1" d="M0,.76l.57,0H18V2.95H10.46l-.1.07a.1.1,0,0,0,0,0,1,1,0,0,0,0,.14q0,10.11,0,20.22a.2.2,0,0,1,0,0,10.11,10.11,0,0,1-2.42,0V3H0Z"/><path class="cls-1" d="M77.65,16.48,85.58.81h2l2.48,22.71H87.79L85.73,5.27h-.11l0,0L78.19,19.92H76.94L69.3,5.23h-.1l-2,18.27a6.08,6.08,0,0,1-1.13,0H64.9c.83-7.6,1.68-15.17,2.51-22.75h2Z"/><path class="cls-1" d="M121.87,12.18a12.25,12.25,0,0,1,.77-4.73,10.61,10.61,0,0,1,2-3.39A11,11,0,0,1,131,.56a12.43,12.43,0,0,1,2.49-.24,12,12,0,0,1,7.31,2.29,10.46,10.46,0,0,1,3.56,4.74,13.65,13.65,0,0,1,.83,5.77A12.17,12.17,0,0,1,143.39,19a10.28,10.28,0,0,1-3.55,3.42A11.28,11.28,0,0,1,135,23.93a17.93,17.93,0,0,1-2.55.08,11.85,11.85,0,0,1-4.58-1.24,10.55,10.55,0,0,1-5.13-5.6,13.26,13.26,0,0,1-.84-3.58A13.13,13.13,0,0,1,121.87,12.18Zm11.66-9.64a9.17,9.17,0,0,0-3.43.58A8.22,8.22,0,0,0,125,8.35a11,11,0,0,0-.6,3.57,11.26,11.26,0,0,0,.87,4.8,8.08,8.08,0,0,0,4.92,4.55,10.26,10.26,0,0,0,5.78.28,8.19,8.19,0,0,0,4.66-2.88,9.57,9.57,0,0,0,2-5.7,19.9,19.9,0,0,0-.08-2.32,8.9,8.9,0,0,0-.67-2.74,8.23,8.23,0,0,0-3.44-4.09A9.17,9.17,0,0,0,133.53,2.54Z"/><path class="cls-1" d="M40.79,12.2a13.78,13.78,0,0,1,.88-4.86,10.65,10.65,0,0,1,2-3.26A11,11,0,0,1,50,.56,13.36,13.36,0,0,1,53.92.39,11.59,11.59,0,0,1,59.7,2.55a10.49,10.49,0,0,1,3.65,4.79,13.56,13.56,0,0,1,.83,5.76A12.12,12.12,0,0,1,62.34,19a10.37,10.37,0,0,1-4.45,3.85A13.15,13.15,0,0,1,52,24a11.77,11.77,0,0,1-5.85-1.64A10.27,10.27,0,0,1,42.06,18a11.67,11.67,0,0,1-1.13-4C40.87,13.4,40.84,12.8,40.79,12.2Zm2.58,0a10.69,10.69,0,0,0,1,4.72,8.09,8.09,0,0,0,2.5,3.1,8.86,8.86,0,0,0,4,1.64,10.22,10.22,0,0,0,5.09-.42,8.07,8.07,0,0,0,4.45-3.7,10,10,0,0,0,1.27-4.37,12,12,0,0,0-.55-4.77A8.68,8.68,0,0,0,59,5a8.52,8.52,0,0,0-5.32-2.42,10.17,10.17,0,0,0-4.52.51,8.21,8.21,0,0,0-4.85,4.51A10.7,10.7,0,0,0,43.37,12.22Z"/><path class="cls-1" d="M149.31,23.53H147V.62a4.74,4.74,0,0,1,1,0l15,18.29.08,0V.82h2.36v23h-.9l-15-18.34h-.06a.08.08,0,0,0,0,0,.78.78,0,0,0,0,.09s0,.06,0,.09q0,8.81,0,17.61s0,.06,0,.09a.17.17,0,0,1,0,0Z"/><path class="cls-1" d="M36.26,13.1H22.43c0,.43,0,.87,0,1.31s0,.85,0,1.28v7.84H20V.79H22.3l.07.06,0,0a.17.17,0,0,1,0,0s0,.09,0,.14q0,4.87,0,9.73a.15.15,0,0,0,0,0c.35.08,13.28.09,13.82,0V.87A9.66,9.66,0,0,1,38.58.82c.09.37.14,21.36,0,22.72H36.31a9,9,0,0,1,0-1.47c0-.51,0-1,0-1.52V14.63C36.26,14.14,36.26,13.65,36.26,13.1Z"/><path class="cls-1" d="M92.07.67c.5,0,1-.08,1.45-.09,1.71,0,3.42-.11,5.12-.08a9.47,9.47,0,0,1,4.67,1.2,5.61,5.61,0,0,1,2.74,3.69,8.3,8.3,0,0,1-.23,4.84,5.94,5.94,0,0,1-2.53,3.09,8.85,8.85,0,0,1-3.5,1.21,13.79,13.79,0,0,1-3,.14c-.74-.06-1.48-.06-2.27-.09v9H92.07Zm2.45,11.78a28.51,28.51,0,0,0,3.72.11,8.93,8.93,0,0,0,2.32-.41,4.39,4.39,0,0,0,3-2.83,6.22,6.22,0,0,0,.24-2.3,4.33,4.33,0,0,0-2.94-4A8.57,8.57,0,0,0,98,2.59c-1.09,0-2.18.05-3.27.08l-.2,0Z"/><path class="cls-1" d="M176.31,0a3.48,3.48,0,0,0,.42.06,5.84,5.84,0,0,1,2.9.85V2.45l-.26-.11a5.72,5.72,0,0,0-2.95-.73,3.53,3.53,0,0,0-2.11.63,2.32,2.32,0,0,0-1,1.62,3.46,3.46,0,0,0,.77,2.6,18.56,18.56,0,0,0,1.45,1.72c1.47,1.55,3,3.08,4.45,4.63.09.09.16.21.29.37a12.41,12.41,0,0,0,.92-3,18.53,18.53,0,0,0,.29-3.07h1.59a15.74,15.74,0,0,1-1.62,7.26L185,18h-2l-2.39-2.34c-.13.13-.24.27-.37.39-.4.37-.78.76-1.21,1.09a6.32,6.32,0,0,1-2.93,1.23,7.16,7.16,0,0,1-4.07-.5,4.17,4.17,0,0,1-2.37-2.5,5.16,5.16,0,0,1-.24-2.28,5.92,5.92,0,0,1,.49-1.88A5.82,5.82,0,0,1,172,8.78c.37-.24.76-.46,1.15-.7l-.57-.75a5.51,5.51,0,0,1-1-2,4,4,0,0,1,.59-3.51,4.33,4.33,0,0,1,2.47-1.6c.33-.08.66-.11,1-.16L176,0Zm-2.16,9.1c-.46.31-.88.56-1.27.86a4.26,4.26,0,0,0-1.47,1.93,4.6,4.6,0,0,0-.25,1.78,2.92,2.92,0,0,0,1.45,2.52,5.31,5.31,0,0,0,6.89-1.64Z"/><path class="cls-1" d="M107.33,22.49V19.88l.47.32a9.15,9.15,0,0,0,4.42,1.66,8.46,8.46,0,0,0,3.29-.21,4.06,4.06,0,0,0,2.55-1.9,4.29,4.29,0,0,0-.64-4.68,7.93,7.93,0,0,0-2.12-1.58c-.87-.45-1.75-.87-2.63-1.3a13.7,13.7,0,0,1-3.07-2,5.29,5.29,0,0,1-1.93-3.57,5.51,5.51,0,0,1,1.41-4.46A5.86,5.86,0,0,1,111.5.68a8.82,8.82,0,0,1,2.78-.51,15.15,15.15,0,0,1,4.23.4,8.07,8.07,0,0,1,1.85.69,10.34,10.34,0,0,1,0,2.33c-.34-.17-.67-.34-1-.49a8.07,8.07,0,0,0-2.68-.72,23.1,23.1,0,0,0-2.37-.08,5.13,5.13,0,0,0-2.73.81,3,3,0,0,0-1.4,3,3.45,3.45,0,0,0,1.36,2.46,13.45,13.45,0,0,0,2.76,1.64c.89.44,1.79.87,2.66,1.34a8.86,8.86,0,0,1,2.49,1.95,5.91,5.91,0,0,1,1.42,3.14,6.89,6.89,0,0,1-.24,3.13A5.83,5.83,0,0,1,117,23.45a8.6,8.6,0,0,1-3.19.58,14,14,0,0,1-4.39-.58A8.64,8.64,0,0,1,107.33,22.49Z"/><rect class="cls-2" x="169.9" y="22.19" width="50.1" height="1.5"/><path class="cls-1" d="M200.7,9.33a9.36,9.36,0,0,1,.63-3.75,8.11,8.11,0,0,1,2.15-3.13A8.56,8.56,0,0,1,207.9.38a10.35,10.35,0,0,1,3.06,0,8.81,8.81,0,0,1,4.13,1.6,8,8,0,0,1,2.79,3.66,10.44,10.44,0,0,1,.64,4.44,9.54,9.54,0,0,1-1,3.75,7.87,7.87,0,0,1-3.13,3.33,8.65,8.65,0,0,1-3.73,1.17,13.66,13.66,0,0,1-2,.06,9.06,9.06,0,0,1-3.5-1,8.13,8.13,0,0,1-2.48-1.92,8.27,8.27,0,0,1-1.45-2.4,10.32,10.32,0,0,1-.62-2.66A9.37,9.37,0,0,1,200.7,9.33Zm1.92-.07a8.28,8.28,0,0,0,.73,3.68,6.19,6.19,0,0,0,1.93,2.4,6.8,6.8,0,0,0,3,1.25,7.79,7.79,0,0,0,3.92-.34,6.16,6.16,0,0,0,3.38-2.86,7.7,7.7,0,0,0,.94-3.31,9.19,9.19,0,0,0-.42-3.64,6.61,6.61,0,0,0-1.59-2.6A6.52,6.52,0,0,0,210.46,2a7.78,7.78,0,0,0-3.46.4,6.28,6.28,0,0,0-3.69,3.42A8,8,0,0,0,202.62,9.26Z"/><path class="cls-1" d="M200.75,15.55v1.66a10.1,10.1,0,0,1-2.41.86,12.22,12.22,0,0,1-3.54.2,9.18,9.18,0,0,1-5-1.73,7.7,7.7,0,0,1-2.68-3.61,10.34,10.34,0,0,1-.58-3.8,10,10,0,0,1,.6-3.29,8.06,8.06,0,0,1,2.3-3.37A9.16,9.16,0,0,1,195.06.36c.6,0,1.21,0,1.81,0a11.26,11.26,0,0,1,3.81.92l.07.06V3.11l-.59-.28A10.13,10.13,0,0,0,195.9,2a8.79,8.79,0,0,0-2.81.45A6.38,6.38,0,0,0,189,6.53a8.67,8.67,0,0,0-.43,3.57,7.5,7.5,0,0,0,.92,3.2A6.18,6.18,0,0,0,193,16.18a10,10,0,0,0,4.15.4,9.52,9.52,0,0,0,3.21-.92l.26-.12Z"/><circle class="cls-1" cx="218.76" cy="17.04" r="1.06"/></svg>